<?xml version="1.0" standalone="no"?>
<!DOCTYPE svg PUBLIC "-//W3C//DTD SVG 1.1//EN" "http://www.w3.org/Graphics/SVG/1.1/DTD/svg11.dtd" >
<svg width="386" height="386"
    xmlns="http://www.w3.org/2000/svg">
    <metadata/>
    <g id="svg_5" transform="matrix(1.3016547143199622,0,0,1.2568537232818398,-15.711391205284047,-37.02805052298662) " stroke="null">
        <svg width="300" height="300" viewBox="56 -78 983 753" id="svg_1" x="17.55204" y="43.79456" stroke="null">
            <path fill="#6666ff" d="m1024,510q3,7 3,16l-1,19q-1,6 -2,18q-1,12 -5,21q-3,6 -17,20q-13,4 -15,10q-4,2 -23.5,9.5q-19.5,7.5 -38.5,10.5q-9,1 -25.5,2q-16.5,1 -28.5,4l-46,3q-23,1 -69,5q-5,-1 -12,-2q-7,-1 -11,-1q-19,0 -33,-5l-3,0q-10,0 -28,-6l-36,-15q-34,-14 -55.5,-25q-21.5,-11 -40.5,-28q-17,-17 -27,-43q-2,-7 -6.5,-18.5q-4.5,-11.5 -3.5,-20.5q-4,-10 -4,-23q0,-13 0,-16q0,-10 -1,-15q1,-53 3.5,-84q2.5,-31 12.5,-62q0,-10 0.5,-35q0.5,-25 4.5,-44q0,-14 2,-32q2,-18 3,-25l3,-22q2,-11 4,-35q2,-26 5,-39q1,-6 1,-18.5q0,-12.5 6,-20.5q1,-7 5,-26q1,-3 4,-17q3,-14 2,-27q-2,-8 -2,-23q-4,-7 0,-12l2,-1q4,0 8.5,2q4.5,2 6.5,3q2,-1 2,-2q0,-1 1,-2q8,3 17,10q8,4 21.5,9q13.5,5 21.5,11q3,8 12,14q9,6 13,10q5,5 12,15q7,10 12,15l0,3q0,7 -4,14q-4,7 -5,9q-2,1 -6.5,3q-4.5,2 -8.5,2q-7,5 -16,10q-2,4 -9,11q-7,7 -9,12q-10,10 -14,11q-1,6 -5.5,10q-4.5,4 -6.5,6q-1,7 -5.5,15q-4.5,8 -6.5,12q-4,17 -12,34q-2,5 -7,19.5q-5,14.5 -7,26.5q-6,6 -7.5,17q-1.5,11 -2.5,16q-2,11 -2,24.5q0,13.5 0,17.5l0,22q0,14 -4,21q-1,11 -1,33q0,40 7,98q1,3 2,11q1,8 6,12q2,10 7.5,23q5.5,13 8.5,21q3,5 19,21q9,7 17,7q8,6 22.5,7.5q14.5,1.5 21.5,2.5q17,1 51,-3l25,-3q16,-4 37,-6.5q21,-2.5 30,-3.5q26,-5 43,-9.5q17,-4.5 33,-12.5q5,-5 17.5,-15q12.5,-10 20.5,-20.5q8,-10.5 11,-21.5q1,-9 9,-25q2,-8 8,-24q1,-3 5,-15.5q4,-12.5 4,-24.5q1,-3 3,-8.5q2,-5.5 3,-10.5q0,-5 2.5,-3q2.5,2 5.5,-2q3,12 3.5,28.5q0.5,16.5 0.5,23.5q1,3 2.5,11q1.5,8 4.5,14q8,10 13,13q1,4 3.5,10.5q2.5,6.5 5.5,10.5l3,0q5,0 9,3q4,3 5,4q1,5 6.5,14.5q5.5,9.5 6.5,14.5l0,2q0,6 2,13.5q2,7.5 1,11.5zm-808,-396q-7,6 -20.5,19.5q-13.5,13.5 -25.5,19.5l-13,12q1,-2 5.5,-9.5q4.5,-7.5 11.5,-12.5q5,-8 13,-15.5q8,-7.5 11,-10.5q3,-4 7.5,-11.5q4.5,-7.5 10.5,-11.5q3,-8 11,-16.5q8,-8.5 12,-13.5l16,-21q22,-27 31,-48q-4,-8 -13,-10.5q-9,-2.5 -11,-3.5q-11,-11 -11,-23q0,-9 7,-13.5q7,-4.5 19,-8.5q12,-6 24,-9l4,-1q1,-1 4,-1q3,0 6.5,1.5q3.5,1.5 6.5,2.5q15,17 27,17q2,4 8,6.5q6,2.5 9,4.5q5,5 18,16q13,11 20,24q1,12 -4,25q-5,13 -6,15q-2,2 -16.5,12.5q-14.5,10.5 -29.5,16.5l-10,8q-2,-6 -7.5,-9q-5.5,-3 -7.5,-4q-13,0 -22,4q-5,4 -15.5,10.5q-10.5,6.5 -16.5,13.5q-6,1 -12,4q-6,3 -9,4q1,-9 -2.5,-7q-3.5,2 -14,12q-10.5,10 -15.5,12zm132,16q1,2 -0.5,3q-1.5,1 -3.5,1q-2,0 0,-1l4,-3zm136,110q-1,-4 3,-7q4,-3 3,2l-9,13q-8,5 -13,16.5q-5,11.5 -8,17.5q-10,10 -19,28q-7,5 -12.5,18q-5.5,13 -8.5,17l-1,10q-4,1 -6.5,5q-2.5,4 -3.5,5q-5,3 -9,10q-4,7 -6,11q-2,4 -5.5,8.5q-3.5,4.5 -5.5,7.5q-1,2 -1,5q0,2 1,2q2,0 5,-2q3,-2 6,-3l-1,1q2,3 3.5,3q1.5,0 0.5,5q4,-3 7,-12.5q3,-9.5 7,-12.5q4,-2 9,-11q2,-2 3,0l-4,10q1,1 3,1q4,0 6.5,-3q2.5,-3 0.5,-6q2,-2 -1.5,-4.5q-3.5,-2.5 -1.5,-3.5q5,1 11,5q-10,8 -7,12q-3,2 -8.5,9q-5.5,7 -10.5,8q-1,2 -4,8q-3,6 -7,7q-18,16 -19,33q5,-3 6,-1q-4,1 -4,5q0,2 3,8q3,6 3,9q-4,2 -3.5,4q0.5,2 2.5,4q2,2 -4,3l1,1l2,0q4,0 4.5,4.5q0.5,4.5 0.5,9q0,4.5 0,8.5l1,1l-1,5q0,5 3.5,12q3.5,7 5.5,11q1,4 2,13q1,9 5,15q1,2 2.5,9.5q1.5,7.5 5.5,12.5l1,0l0,2q0,4 2.5,12q2.5,8 1.5,12q-11,2 -9,19q-2,2 -5.5,3q-3.5,1 -2.5,8q-1,3 -3.5,4.5q-2.5,1.5 -3.5,4.5q-3,-3 -7,-3q-3,0 -12.5,4.5q-9.5,4.5 -15.5,0.5q-2,-5 -7.5,-9.5q-5.5,-4.5 -7.5,-6.5q-6,-8 -14.5,-18q-8.5,-10 -13.5,-17l0,-2q0,-5 -4.5,-14q-4.5,-9 -4.5,-14q1,-5 1,-16l-1,-21q-2,-18 -1,-27q-1,-2 -3,-2q-3,0 -8,4.5q-5,4.5 -8,6.5q-9,10 -37,27q-2,2 -8.5,7.5q-6.5,5.5 -5.5,12.5q-4,1 -6.5,7q-2.5,6 -3.5,8q-2,2 -5,5q-3,3 -6,4q-5,0 -12.5,-4.5q-7.5,-4.5 -11.5,-4.5q-3,6 -9,10q-6,4 -7,-3q0,-3 3,-7.5q3,-4.5 -2,-1.5q-12,-1 -21,-24q-7,-2 -9,-12q-2,-10 -3,-14q-8,-6 -8,-15q0,-7 9,-6q2,-2 2,-3q0,-3 -4,-6q-4,-3 -5,-4l0,-16l1,0l0,2q0,4 2,8.5q2,4.5 3,7.5l2,2l1,-2q0,-1 -3,-13q4,-14 10,-19q2,-11 7,-15q7,-13 15,-31.5q8,-18.5 12,-27.5q1,-1 5,-4q4,-3 3,-7q1,-3 4,-6l-4,2q-15,4 -19,7q-6,7 -19,7q-5,0 -17,-2q-6,-4 -15,-7q-9,-3 -14,-5q-17,-10 -33,-26q-1,-3 -12,-19q-8,-8 -12,-16q-1,-4 -1,-11q0,-8 1.5,-19.5q1.5,-11.5 2.5,-19.5q7,-9 15,-13q10,2 15,0q-1,12 9,14.5q10,2.5 30,2.5q7,-3 12.5,-4q5.5,-1 8.5,-2q18,-7 37,-18q5,-3 23,-13.5q18,-10.5 29,-23.5q7,-4 19,-12.5q12,-8.5 22,-11.5q4,-7 13,-11q9,-4 14,-7l1,0q4,0 5,-5.5q1,-5.5 1,-6.5q2,-2 5,-6q3,-4 7,-5q4,1 9.5,1q5.5,0 7.5,0l6,-2q1,0 2.5,0.5q1.5,0.5 5.5,-4.5l4,-2l1,-1l9,9l3,-1q3,0 10.5,4q7.5,4 8.5,0q11,6 22.5,13q11.5,7 18.5,16q3,0 3,5l-1,8q2,-4 2.5,-2q0.5,2 0,4.5q-0.5,2.5 -1.5,1.5l2,-3q-1,0 -2.5,1.5q-1.5,1.5 -4.5,2.5q-4,7 -12,14q-1,2 -4.5,3.5q-3.5,1.5 -5.5,3.5q-5,15 -14,24q-3,7 -3,13q0,6 -2,14q-7,15 -9,32l-1,1q2,3 1.5,11q-0.5,8 1.5,3l0,1q0,1 -1,3q-1,2 -2,3l0,-3q-1,1 -1.5,4.5q-0.5,3.5 -0.5,7.5q2,-3 3,-3q1,0 1,2q0,3 -1,8.5q-1,5.5 0,8.5q10,-6 16,-12q10,-14 34,-40q6,-10 11,-13q4,-7 12,-12.5q8,-5.5 10,-7.5q2,-4 9.5,-9.5q7.5,-5.5 9.5,-9.5zm-416,7q2,1 0,3l-2,-1l2,-2zm22,4l0,-1l0,1zm283,39q-2,1 -3.5,3q-1.5,2 0.5,3l0,25q0,-10 1,-17q1,-7 2,-12l0,-2zm-7,65q-1,3 0,4q1,1 2,-2l-2,-2zm50,37q-4,-4 -1,5l1,-4l0,-1zm-215,2q-1,1 -4.5,3.5q-3.5,2.5 -0.5,3.5l3,-2l2,-5zm93,113q2,-1 6,-4q4,-3 6,-6q2,-3 1,-7l-1,-7q0,0 -0.5,-0.5q-0.5,-0.5 -0.5,-0.5q-3,0 -9.5,8.5q-6.5,8.5 -8.5,11.5q0,1 -0.5,2q-0.5,1 0.5,1q-1,-6 7,2zm-98,87q3,4 2,5q-1,1 -4,-3l2,-2z" id="svg_2" stroke="null"/>
        </svg>
    </g>
</svg>