<svg style="position: absolute; width: 0; height: 0;" width="0" height="0" version="1.1" xmlns="http://www.w3.org/2000/svg" xmlns:xlink="http://www.w3.org/1999/xlink"><defs><symbol id="space" viewBox="0 -200 1000 1000"><path d=""></path></symbol><symbol id="uni793C" viewBox="0 -200 1000 1000"><path d="M1024 527.12 q1 -4 -1 -11.5 q-2 -7.5 -2 -13.5 l0 -2 q-1 -5 -6.5 -14.5 q-5.5 -9.5 -6.5 -14.5 q-1 -1 -5 -4 q-4 -3 -9 -3 l-3 0 q-3 -4 -5.5 -10.5 q-2.5 -6.5 -3.5 -10.5 q-5 -3 -13 -13 q-3 -6 -4.5 -14 q-1.5 -8 -2.5 -11 q0 -7 -0.5 -23.5 q-0.5 -16.5 -3.5 -28.5 q-3 4 -5.5 2 q-2.5 -2 -2.5 3 q-1 5 -3 10.5 q-2 5.5 -3 8.5 q0 12 -4 24.5 q-4 12.5 -5 15.5 q-6 16 -8 24 q-8 16 -9 25 q-3 11 -11 21.5 q-8 10.5 -20.5 20.5 q-12.5 10 -17.5 15 q-16 8 -33 12.5 q-17 4.5 -43 9.5 q-9 1 -30 3.5 q-21 2.5 -37 6.5 l-25 3 q-34 4 -51 3 q-7 -1 -21.5 -2.5 q-14.5 -1.5 -22.5 -7.5 q-8 0 -17 -7 q-16 -16 -19 -21 q-3 -8 -8.5 -21 q-5.5 -13 -7.5 -23 q-5 -4 -6 -12 q-1 -8 -2 -11 q-7 -58 -7 -98 q0 -22 1 -33 q4 -7 4 -21 l0 -22 q0 -4 0 -17.5 q0 -13.5 2 -24.5 q1 -5 2.5 -16 q1.5 -11 7.5 -17 q2 -12 7 -26.5 q5 -14.5 7 -19.5 q8 -17 12 -34 q2 -4 6.5 -12 q4.5 -8 5.5 -15 q2 -2 6.5 -6 q4.5 -4 5.5 -10 q4 -1 14 -11 q2 -5 9 -12 q7 -7 9 -11 q9 -5 16 -10 q4 0 8.5 -2 q4.5 -2 6.5 -3 q1 -2 5 -9 q4 -7 4 -14 l0 -3 q-5 -5 -12 -15 q-7 -10 -12 -15 q-4 -4 -13 -10 q-9 -6 -12 -14 q-8 -6 -21.5 -11 q-13.5 -5 -21.5 -9 q-9 -7 -17 -10 q-1 1 -1 2 q0 1 -2 2 q-2 -1 -6.5 -3 q-4.5 -2 -8.5 -2 l-2 1 q-4 5 0 12 q0 15 2 23 q1 13 -2 27 q-3 14 -4 17 q-4 19 -5 26 q-6 8 -6 20.5 q0 12.5 -1 18.5 q-3 13 -5 39 q-2 24 -4 35 l-3 22 q-1 7 -3 25 q-2 18 -2 32 q-4 19 -4.5 44 q-0.5 25 -0.5 35 q-10 31 -12.5 62 q-2.5 31 -3.5 84 q1 5 1 15 q0 3 0 16 q0 13 4 23 q-1 9 3.5 20.5 q4.5 11.5 6.5 18.5 q10 26 27 43 q19 17 40.5 28 q21.5 11 55.5 25 l36 15 q18 6 28 6 l3 0 q14 5 33 5 q4 0 11 1 q7 1 12 2 q46 -4 69 -5 l46 -3 q12 -3 28.5 -4 q16.5 -1 25.5 -2 q19 -3 38.5 -10.5 q19.5 -7.5 23.5 -9.5 q2 -6 15 -10 q14 -14 17 -20 q4 -9 5 -21 q1 -12 2 -18 l1 -19 q0 -9 -3 -16 ZM216 131.12 q5 -2 15.5 -12 q10.5 -10 14 -12 q3.5 -2 2.5 7 q3 -1 9 -4 q6 -3 12 -4 q6 -7 16.5 -13.5 q10.5 -6.5 15.5 -10.5 q9 -4 22 -4 q2 1 7.5 4 q5.5 3 7.5 9 l10 -8 q15 -6 29.5 -16.5 q14.5 -10.5 16.5 -12.5 q1 -2 6 -15 q5 -13 4 -25 q-7 -13 -20 -24 q-13 -11 -18 -16 q-3 -2 -9 -4.5 q-6 -2.5 -8 -6.5 q-12 0 -27 -17 q-3 -1 -6.5 -2.5 q-3.5 -1.5 -6.5 -1.5 q-3 0 -4 1 l-4 1 q-12 3 -24 9 q-12 4 -19 8.5 q-7 4.5 -7 13.5 q0 12 11 23 q2 1 11 3.5 q9 2.5 13 10.5 q-9 21 -31 48 l-16 21 q-4 5 -12 13.5 q-8 8.5 -11 16.5 q-6 4 -10.5 11.5 q-4.5 7.5 -7.5 11.5 q-3 3 -11 10.5 q-8 7.5 -13 15.5 q-7 5 -11.5 12.5 q-4.5 7.5 -5.5 9.5 l13 -12 q12 -6 25.5 -19.5 q13.5 -13.5 20.5 -19.5 ZM344 150.12 q-2 1 0 1 q2 0 3.5 -1 q1.5 -1 0.5 -3 l-4 3 ZM484 257.12 q-2 4 -9.5 9.5 q-7.5 5.5 -9.5 9.5 q-2 2 -10 7.5 q-8 5.5 -12 12.5 q-5 3 -11 13 q-24 26 -34 40 q-6 6 -16 12 q-1 -3 0 -8.5 q1 -5.5 1 -8.5 q0 -2 -1 -2 q-1 0 -3 3 q0 -4 0.5 -7.5 q0.5 -3.5 1.5 -4.5 l0 3 q1 -1 2 -3 q1 -2 1 -3 l0 -1 q-2 5 -1.5 -3 q0.5 -8 -1.5 -11 l1 -1 q2 -17 9 -32 q2 -8 2 -14 q0 -6 3 -13 q9 -9 14 -24 q2 -2 5.5 -3.5 q3.5 -1.5 4.5 -3.5 q8 -7 12 -14 q3 -1 4.5 -2.5 q1.5 -1.5 2.5 -1.5 l-2 3 q1 1 1.5 -1.5 q0.5 -2.5 0 -4.5 q-0.5 -2 -2.5 2 l1 -8 q0 -5 -3 -5 q-7 -9 -18.5 -16 q-11.5 -7 -22.5 -13 q-1 4 -8.5 0 q-7.5 -4 -10.5 -4 l-3 1 l-9 -9 l-1 1 l-4 2 q-4 5 -5.5 4.5 q-1.5 -0.5 -2.5 -0.5 l-6 2 q-2 0 -7.5 0 q-5.5 0 -9.5 -1 q-4 1 -7 5 q-3 4 -5 6 q0 1 -1 6.5 q-1 5.5 -5 5.5 l-1 0 q-5 3 -14 7 q-9 4 -13 11 q-10 3 -22 11.5 q-12 8.5 -19 12.5 q-11 13 -29 23.5 q-18 10.5 -23 13.5 q-19 11 -37 18 q-3 1 -8.5 2 q-5.5 1 -12.5 4 q-20 0 -30 -2.5 q-10 -2.5 -9 -14.5 q-5 2 -15 0 q-8 4 -15 13 q-1 8 -2.5 19.5 q-1.5 11.5 -1.5 19.5 q0 7 1 11 q4 8 12 16 q11 16 12 19 q16 16 33 26 q5 2 14 5 q9 3 15 7 q12 2 17 2 q13 0 19 -7 q4 -3 19 -7 l4 -2 q-3 3 -4 6 q1 4 -3 7 q-4 3 -5 4 q-4 9 -12 27.5 q-8 18.5 -15 31.5 q-5 4 -7 15 q-6 5 -10 19 q3 12 3 13 l-1 2 l-2 -2 q-1 -3 -3 -7.5 q-2 -4.5 -2 -8.5 l0 -2 l-1 0 l0 16 q1 1 5 4 q4 3 4 6 q0 1 -2 3 q-9 -1 -9 6 q0 9 8 15 q1 4 3 14 q2 10 9 12 q9 23 21 24 q5 -3 2 1.5 q-3 4.5 -3 7.5 q1 7 7 3 q6 -4 9 -10 q4 0 11.5 4.5 q7.5 4.5 12.5 4.5 q3 -1 6 -4 q3 -3 5 -5 q1 -2 3.5 -8 q2.5 -6 6.5 -7 q-1 -7 5.5 -12.5 q6.5 -5.5 8.5 -7.5 q28 -17 37 -27 q3 -2 8 -6.5 q5 -4.5 8 -4.5 q2 0 3 2 q-1 9 1 27 l1 21 q0 11 -1 16 q0 5 4.5 14 q4.5 9 4.5 14 l0 2 q5 7 13.5 17 q8.5 10 14.5 18 q2 2 7.5 6.5 q5.5 4.5 7.5 9.5 q6 4 15.5 -0.5 q9.5 -4.5 12.5 -4.5 q4 0 7 3 q1 -3 3.5 -4.5 q2.5 -1.5 3.5 -4.5 q-1 -7 2.5 -8 q3.5 -1 5.5 -3 q-2 -17 9 -19 q1 -4 -1.5 -12 q-2.5 -8 -2.5 -12 l0 -2 l-1 0 q-4 -5 -5.5 -12.5 q-1.5 -7.5 -2.5 -9.5 q-4 -6 -5 -15 q-1 -9 -2 -13 q-2 -4 -5.5 -11 q-3.5 -7 -3.5 -12 l1 -5 l-1 -1 q0 -4 0 -8.5 q0 -4.5 -0.5 -9 q-0.5 -4.5 -4.5 -4.5 l-2 0 l-1 -1 q6 -1 4 -3 q-2 -2 -2.5 -4 q-0.5 -2 3.5 -4 q0 -3 -3 -9 q-3 -6 -3 -8 q0 -4 4 -5 q-1 -2 -6 1 q1 -17 19 -33 q4 -1 7 -7 q3 -6 4 -8 q5 -1 10.5 -8 q5.5 -7 8.5 -9 q-3 -4 7 -12 q-6 -4 -11 -5 q-2 1 1.5 3.5 q3.5 2.5 1.5 4.5 q2 3 -0.5 6 q-2.5 3 -6.5 3 q-2 0 -3 -1 l4 -10 q-1 -2 -3 0 q-5 9 -9 11 q-4 3 -7 12.5 q-3 9.5 -7 12.5 q1 -5 -0.5 -5 q-1.5 0 -3.5 -3 l1 -1 q-3 1 -6 3 q-3 2 -5 2 q-1 0 -1 -2 q0 -3 1 -5 q2 -3 5.5 -7.5 q3.5 -4.5 5.5 -8.5 q2 -4 6 -11 q4 -7 9 -10 q1 -1 3.5 -5 q2.5 -4 6.5 -5 l1 -10 q3 -4 8.5 -17 q5.5 -13 12.5 -18 q9 -18 19 -28 q3 -6 8 -17.5 q5 -11.5 13 -16.5 l9 -13 q1 -5 -3 -2 q-4 3 -3 7 ZM68 264.12 l-2 2 l2 1 q2 -2 0 -3 ZM90 267.12 l0 1 l0 -1 ZM373 309.12 q-1 5 -2 12 q-1 7 -1 17 l0 -25 q-2 -1 -0.5 -3 q1.5 -2 3.5 -3 l0 2 ZM366 372.12 l2 2 q-1 3 -2 2 q-1 -1 0 -4 ZM416 409.12 l0 1 l-1 4 q-3 -9 1 -5 ZM199 416.12 l-3 2 q-3 -1 0.5 -3.5 q3.5 -2.5 4.5 -3.5 l-2 5 ZM294 524.12 q-8 -8 -7 -2 q-1 0 -0.5 -1 q0.5 -1 0.5 -2 q2 -3 8.5 -11.5 q6.5 -8.5 9.5 -8.5 q0 0 0.5 0.5 q0.5 0.5 0.5 0.5 l1 7 q1 4 -1 7 q-2 3 -6 6 q-4 3 -6 4 ZM194 613.12 q3 4 4 3 q1 -1 -2 -5 l-2 2 Z"></path></symbol></defs></svg>